HIERARCHY
ROOT Hips
{
	OFFSET 0.000000 0.000000 0.000000 
	CHANNELS 6 Xposition Yposition Zposition Zrotation Yrotation Xrotation
	JOINT LeftUpLeg
	{
		OFFSET 1.363060 -1.794630 0.839290 
		CHANNELS 3 Zrotation Yrotation Xrotation
		JOINT LeftLeg
		{
			OFFSET 2.448110 -6.726130 0.000000 
			CHANNELS 3 Zrotation Yrotation Xrotation
			JOINT LeftFoot
			{
				OFFSET 2.562200 -7.039590 0.000000 
				CHANNELS 3 Zrotation Yrotation Xrotation
				JOINT LeftToeBase
				{
					OFFSET 0.157640 -0.433110 2.322550 
					CHANNELS 3 Zrotation Yrotation Xrotation
					End Site
					{
						OFFSET 0.000000 0.000000 0.000000 
					}
				}
			}
		}
	}
	JOINT RightUpLeg
	{
		OFFSET -1.305520 -1.794630 0.839290 
		CHANNELS 3 Zrotation Yrotation Xrotation
		JOINT RightLeg
		{
			OFFSET -2.542530 -6.985550 0.000000 
			CHANNELS 3 Zrotation Yrotation Xrotation
			JOINT RightFoot
			{
				OFFSET -2.568260 -7.056230 0.000000 
				CHANNELS 3 Zrotation Yrotation Xrotation
				JOINT RightToeBase
				{
					OFFSET -0.164730 -0.452590 2.363150 
					CHANNELS 3 Zrotation Yrotation Xrotation
					End Site
					{
						OFFSET 0.000000 0.000000 0.000000 
					}
				}
			}
		}
	}
	JOINT Spine
	{
		OFFSET 0.028270 2.035590 -0.193380 
		CHANNELS 3 Zrotation Yrotation Xrotation
		JOINT Spine1
		{
			OFFSET 0.056720 2.048850 -0.042750 
			CHANNELS 3 Zrotation Yrotation Xrotation
			JOINT Neck1
			{
				OFFSET -0.054170 1.746240 0.172020 
				CHANNELS 3 Zrotation Yrotation Xrotation
				JOINT Head
				{
					OFFSET 0.104070 1.761360 -0.123970 
					CHANNELS 3 Zrotation Yrotation Xrotation
					End Site
					{
						OFFSET 0.000000 0.000000 0.000000 
					}
				}
			}
			JOINT LeftArm
			{
				OFFSET 3.362410 1.200890 -0.311210 
				CHANNELS 3 Zrotation Yrotation Xrotation
				JOINT LeftForeArm
				{
					OFFSET 4.983000 -0.000000 -0.000000 
					CHANNELS 3 Zrotation Yrotation Xrotation
					JOINT LeftHand
					{
						OFFSET 3.483560 -0.000000 -0.000000 
						CHANNELS 3 Zrotation Yrotation Xrotation
						JOINT LeftHandIndex1
						{
							OFFSET 0.715260 -0.000000 -0.000000 
							CHANNELS 3 Zrotation Yrotation Xrotation
							End Site
							{
								OFFSET 0.000000 0.000000 0.000000 
							}
						}
					}
				}
			}
			JOINT RightArm
			{
				OFFSET -3.136600 1.374050 -0.404650 
				CHANNELS 3 Zrotation Yrotation Xrotation
				JOINT RightForeArm
				{
					OFFSET -5.241900 -0.000000 -0.000000 
					CHANNELS 3 Zrotation Yrotation Xrotation
					JOINT RightHand
					{
						OFFSET -3.444170 -0.000000 -0.000000 
						CHANNELS 3 Zrotation Yrotation Xrotation
						JOINT RightHandIndex1
						{
							OFFSET -0.622530 -0.000000 -0.000000 
							CHANNELS 3 Zrotation Yrotation Xrotation
							End Site
							{
								OFFSET 0.000000 0.000000 0.000000 
							}
						}
					}
				}
			}
		}
	}
}
MOTION
Frames: 12
Frame Time: 0.041667
1.951915 34.106558 -5.081343 179.701532 -13.868044 -167.615530 -19.456389 -0.715609 -23.474219 0.596202 8.758591 26.568257 -2.020551 9.065794 0.586400 0.684700 -5.290500 -14.739000 17.038375 9.122080 -19.705619 -1.146997 -8.992887 27.675862 -0.225469 -0.403549 -2.830097 -0.220800 -3.024700 8.347400 0.919160 0.013247 -2.218664 3.001059 0.469310 -0.406781 1.178698 3.690933 29.508243 2.727800 -1.692500 16.453100 -78.915843 -20.322295 61.514787 59.881167 -56.032316 -37.826280 -0.008901 -0.839942 45.721684 -7.125000 0.000000 0.000000 68.221924 3.444877 53.194542 -108.597157 56.967026 -80.275967 -0.301152 1.038052 54.340828 7.125000 0.000000 0.000000 
1.937420 34.102503 -5.081141 179.689830 -13.853528 -167.529503 -19.571870 -0.589358 -23.641389 0.617413 8.804472 26.719200 -1.926910 8.727624 0.398648 0.526000 -4.647700 -12.906300 16.951959 9.066067 -19.785363 -1.145335 -8.994562 27.670965 -0.243014 -0.330516 -2.802283 -0.216500 -2.995300 8.265500 0.770572 0.093293 -2.161746 2.679167 0.506342 -0.254064 1.215894 3.507223 29.412142 2.667100 -1.692300 16.364200 -78.584050 -20.603010 61.895773 59.940889 -56.045684 -37.876465 -0.006549 -0.843850 45.671687 -7.125000 0.000000 0.000000 67.843328 3.427810 53.870561 -108.946813 56.912750 -80.518465 -0.255431 1.053394 53.809443 7.125000 0.000000 0.000000 
1.926574 34.100679 -5.078505 179.656210 -13.864207 -167.419255 -19.697975 -0.458709 -23.892919 0.647694 8.867854 26.905159 -1.862698 8.500805 0.306896 0.443800 -4.274400 -11.849800 16.853386 9.161870 -19.862876 -1.147145 -8.999051 27.678153 -0.214498 -0.471792 -2.905764 -0.185100 -2.770900 7.641500 0.779443 0.112282 -2.122224 2.826652 0.510695 -0.153645 1.250230 3.490389 29.439887 2.687000 -1.695900 16.421600 -78.550905 -20.831179 62.152741 60.068277 -56.081357 -37.984690 -0.003811 -0.847908 45.666357 -7.125000 0.000000 0.000000 67.557516 2.468322 53.960096 -110.036723 56.762727 -81.382389 -0.209447 1.026353 53.831972 7.125000 0.000000 0.000000 
1.916742 34.091354 -5.073336 179.534781 -13.859996 -167.289808 -19.905910 -0.390278 -24.110214 0.673770 8.921069 27.066415 -1.814895 8.333060 0.193972 0.380500 -3.961700 -10.968800 16.672361 9.279865 -19.949661 -1.158634 -9.019734 27.735824 -0.229807 -0.441042 -3.106454 -0.197500 -2.862000 7.894900 0.834901 0.000239 -2.157455 3.105547 0.454862 -0.233473 1.248680 3.659108 29.438041 2.730400 -1.658400 16.378500 -78.729712 -21.250909 62.313764 59.721926 -55.973214 -37.670602 -0.007786 -0.837697 45.554870 -7.125000 0.000000 0.000000 67.072503 1.505307 54.341615 -110.887865 56.636179 -82.049028 -0.165789 0.999245 53.769587 7.125000 0.000000 0.000000 
1.904984 34.079697 -5.069586 179.598459 -13.853881 -167.254011 -19.909161 -0.375020 -24.261501 0.711102 8.987077 27.245906 -1.863311 8.511820 0.147900 0.368800 -3.901000 -10.798300 16.680281 9.336909 -19.993465 -1.171478 -9.038700 27.801632 -0.272267 -0.289176 -3.318814 -0.197000 -2.858400 7.884800 0.792451 0.055968 -2.129584 3.043355 0.482105 -0.230277 1.295258 3.577278 29.416176 2.722500 -1.660400 16.371600 -78.639190 -21.126069 62.578721 60.022416 -56.057749 -37.925676 -0.004943 -0.823270 45.811985 -7.125000 0.000000 0.000000 66.957411 0.657673 54.400335 -111.405096 56.552965 -82.449578 -0.118417 0.968878 53.732039 7.125000 0.000000 0.000000 
1.895254 34.069156 -5.064011 179.646914 -13.848386 -167.273730 -20.089662 0.089616 -24.710131 0.766260 9.077409 27.442073 -2.033128 9.151130 0.662934 0.703100 -5.359700 -14.937300 16.679819 9.416917 -19.979717 -1.184087 -9.052595 27.860104 -0.298680 -0.199440 -3.489905 -0.203800 -2.906500 8.018500 0.770807 0.051918 -2.065296 3.052086 0.477963 -0.158561 1.360086 3.589766 29.385457 2.754800 -1.634400 16.366800 -78.353130 -20.604686 62.408096 60.968724 -56.333499 -38.773494 0.006161 -0.836292 46.202514 -7.125000 0.000000 0.000000 66.826912 -0.048936 54.579221 -111.743041 56.497028 -82.702611 -0.071237 0.937919 53.705416 7.125000 0.000000 0.000000 
1.885320 34.060236 -5.057219 179.792554 -13.869460 -167.227048 -20.117401 0.486727 -25.150083 0.810319 9.161125 27.639910 -2.052831 9.243400 0.992562 0.912000 -6.085100 -17.031600 16.761014 9.613057 -20.004031 -1.188462 -9.049276 27.876846 -0.375588 0.129073 -3.571111 -0.243100 -3.173200 8.761300 0.768013 0.055935 -2.009779 3.034329 0.476184 -0.057775 1.387532 3.569957 29.283670 2.758300 -1.612100 16.289700 -78.065438 -20.704722 62.617124 61.555844 -56.492324 -39.278937 0.014337 -0.829100 46.179989 -7.125000 0.000000 0.000000 66.772935 -0.893436 54.687663 -112.163082 56.425575 -83.020334 -0.022280 0.901411 53.800306 7.125000 0.000000 0.000000 
1.872751 34.050809 -5.051138 179.923374 -13.843753 -167.130110 -20.139441 0.786752 -25.539026 0.843264 9.231918 27.818897 -2.007210 9.090162 1.114695 1.001700 -6.369000 -17.858800 16.822441 9.731146 -20.102657 -1.189057 -9.040753 27.877465 -0.540796 0.868575 -3.507501 -0.300000 -3.522000 9.735700 0.763332 0.020844 -1.948524 2.999967 0.447457 0.105161 1.451609 3.628195 29.239722 2.802700 -1.568600 16.287300 -78.279906 -22.339445 63.451154 59.990462 -56.024856 -37.860104 -0.004057 -0.788917 45.643975 -7.125000 0.000000 0.000000 66.686714 -1.646883 54.850400 -112.462485 56.375868 -83.241143 0.025236 0.863047 53.848917 7.125000 0.000000 0.000000 
1.859473 34.047160 -5.045766 -179.992132 -13.783311 -167.098981 -20.170881 1.030611 -25.784982 0.875334 9.299124 28.029957 -1.876961 8.614107 0.934492 0.920300 -6.112200 -17.110300 16.847664 9.792907 -20.128027 -1.190324 -9.036815 27.880637 -0.634147 1.279922 -3.535835 -0.303300 -3.541000 9.788700 0.750560 0.005664 -1.933550 2.985845 0.439791 0.123840 1.430957 3.666357 29.173605 2.773400 -1.530200 16.195000 -78.042826 -22.417632 63.666308 60.304811 -56.111092 -38.126775 0.000328 -0.781098 45.582830 -7.125000 0.000000 0.000000 66.464165 -2.391285 55.098461 -112.394228 56.392909 -83.166430 0.072690 0.828519 53.729272 7.125000 0.000000 0.000000 
1.847107 34.042599 -5.039583 -179.887621 -13.764107 -167.089350 -20.168237 1.274835 -26.021000 0.907048 9.366190 28.240014 -1.722955 8.053534 0.819677 0.821400 -5.782700 -16.155300 16.909446 9.813726 -20.152743 -1.195324 -9.040151 27.901443 -0.671275 1.419206 -3.694810 -0.280100 -3.404100 9.405900 0.764504 0.059154 -1.886245 3.034059 0.463505 0.135034 1.411794 3.630871 29.152469 2.748700 -1.527800 16.210300 -77.944079 -22.649272 63.891990 60.503822 -56.163660 -38.302086 0.004794 -0.790502 45.556543 -7.125000 0.000000 0.000000 66.150905 -2.943055 55.142315 -112.089016 56.455613 -82.910917 0.119369 0.796399 53.534251 7.125000 0.000000 0.000000 
1.837579 34.035301 -5.031271 -179.799583 -13.794972 -167.014463 -20.183224 1.437341 -26.332468 0.940257 9.434374 28.431355 -1.645283 7.775350 0.859120 0.833400 -5.823900 -16.274200 16.951369 9.838542 -20.276665 -1.202472 -9.048379 27.933510 -0.717840 1.595775 -3.864722 -0.249500 -3.213800 8.874400 0.668041 0.024054 -1.924472 2.821097 0.453167 -0.020161 1.535993 3.617127 29.133660 2.781700 -1.494300 16.177100 -77.501750 -22.650154 64.056067 60.911051 -56.270649 -38.650388 0.010891 -0.782561 45.546167 -7.125000 0.000000 0.000000 66.316291 -3.671383 55.260702 -111.701128 56.520254 -82.578364 0.166165 0.755986 53.509067 7.125000 0.000000 0.000000 
1.827443 34.029523 -5.023770 -179.785028 -13.827571 -166.883432 -20.205238 1.412246 -26.550980 0.967988 9.497327 28.633211 -1.492800 7.215856 0.652250 0.706300 -5.371500 -14.971300 16.904993 9.874573 -20.439184 -1.211348 -9.063686 27.976262 -0.769067 1.783168 -4.053261 -0.211800 -2.962700 8.174900 0.703540 -0.158721 -1.909291 2.975798 0.357013 0.052459 1.601612 3.853309 29.080573 2.872400 -1.408700 16.116600 -77.351966 -22.814053 64.030041 61.226106 -56.352552 -38.916897 0.013985 -0.764411 45.551334 -7.125000 0.000000 0.000000 66.130146 -4.258567 55.577737 -111.370689 56.583008 -82.292002 0.208207 0.715042 53.519462 7.125000 0.000000 0.000000 
